<svg xmlns="http://www.w3.org/2000/svg" viewBox="0 0 48 48"><defs><style>.cls-1{fill:#c12129}.cls-2{fill:#fff}</style></defs><g id="Layer_2" data-name="Layer 2"><path class="cls-1" d="M0 0h48v48H0zM48 37.67v-.06z"/><path class="cls-2" d="M41.84 37.42a23 23 0 0 1-8.7 1.46h-.7l-.18.67c-.15.53-1.21 4.73-.18 7.43a2.44 2.44 0 0 0-.79 1h2.45l.74-.34-.55-.86c-.93-1.41-.52-4.49-.17-6.17h.08a25.19 25.19 0 0 0 8.49-1.55c.64-.22 1.31-.43 2-.64s.74-.23 1.73-.47L48 41.1v-5.24a27 27 0 0 0-4.12.91zM42.07 18.08H48v-1.76h-5.11l-.82 1.76zM44.74 46.7a4 4 0 0 0-3.56 1.3H48v-1.17l-.38.4zM46.2 20.56h-5.55l-.81 1.76h5.82a1.91 1.91 0 0 1 .19 1 2.08 2.08 0 0 1-2.11 2.05 3.4 3.4 0 0 1-1.34-.33l-.76-.33L40.28 26l.75.32a6.46 6.46 0 0 0 2.72.78 3.82 3.82 0 0 0 2.72-1.16L48 26v-1.68l-.59-.05a3.39 3.39 0 0 0 .1-.84 4.23 4.23 0 0 0-.11-1.05h.6v-2a7.73 7.73 0 0 1-1.8.18z"/><path class="cls-2" d="M33.39 12.66v.09A9 9 0 0 0 29.62 8a9.46 9.46 0 0 0-7.18-1.26 8.14 8.14 0 0 0-2 .9 7.4 7.4 0 0 0-1.68 1.48 14.47 14.47 0 0 0-1.45 2.34 2.61 2.61 0 0 0-.56.61l-.51.95v.06a12 12 0 0 1-1.93 3 2 2 0 0 0-.52 1.72 2.25 2.25 0 0 0 .58 1.1 1.93 1.93 0 0 0-.26 1 2.05 2.05 0 0 0 2.18 2 4.25 4.25 0 0 0 2.31-.9 6 6 0 0 1 1.4-.78.66.66 0 0 1 .64.64c0 .91-1.19 1.41-2 1.47l-1.73.19c-1.24.11-1.83.77-1.83 1.36A1.45 1.45 0 0 0 15.5 25l.13.13.43.39-1.82 3a6.84 6.84 0 0 0-4.2-2 3 3 0 0 0-2.19.76 2.64 2.64 0 0 0-.43.52 3.85 3.85 0 0 0-3.19 1.65 3.85 3.85 0 0 0 .36 3.79l1.88-.49a2.72 2.72 0 0 1-.76-2.42 2.08 2.08 0 0 1 2.12-.81l.75.12.24-.72a1.05 1.05 0 0 1 .26-.44 1.27 1.27 0 0 1 .92-.28 5.44 5.44 0 0 1 3.45 1.93 8 8 0 0 1 1.05 1.39c.07.1.14.22.2.32l.17.27a8.39 8.39 0 0 1 .54.92l1.09-1.53v-.12a5.7 5.7 0 0 0-.4-.65l-.1-.13-.13-.2c-.11-.18-.29-.46-.36-.61l2.28-3.66a6.67 6.67 0 0 0 1.29.14h.06c3.23 0 6.56-1.86 6.56-5v-.07a14.3 14.3 0 0 0-.32-2.31 6.32 6.32 0 0 1-.16-1c0-.33.48-.71 1.17-.71h1l-.47-2.7a5.58 5.58 0 0 0 2.32-4.52 8 8 0 0 1 2.9 5.56 9 9 0 0 1-.26 2.48l-.12.4a33.78 33.78 0 0 1-1.22 3.93l-.27.7.66.37c1.17.67 1.9 1.16 1.9 2.71a3.78 3.78 0 0 1-3.15 3.44l-2.1.45 1.8 1.19a2.05 2.05 0 0 1 .9 1.68 2.08 2.08 0 0 1-2.13 2h-.67l-.2.62c-.65 2.13-1.38 3.18-3.66 3.4a13.1 13.1 0 0 0 .17-2.15v-1l-.11-2-1.39 1.43a4.4 4.4 0 0 1-2.19 1v1.7a7.6 7.6 0 0 0 2-.57 14 14 0 0 1-.23 1.75c0 .15-.06.31-.09.48l-.17 1h1a7.65 7.65 0 0 0 3.6-.72v5.93a.27.27 0 0 1-.27.27h-.26a4.19 4.19 0 0 0-3.54 1.59 2.23 2.23 0 0 0-.14.4h2.63a3.94 3.94 0 0 1 1.09-.16h.26a2 2 0 0 0 2-2v-7.55a8.93 8.93 0 0 0 .85-1.81A3.8 3.8 0 0 0 32 32.75a3.75 3.75 0 0 0-.59-2 5.27 5.27 0 0 0 3.15-4.67 4.12 4.12 0 0 0-2.15-3.85 34.76 34.76 0 0 0 1.11-3.82l1.48-5.3a4.63 4.63 0 0 1 4.38-3.39H48V8h-8.55a6.35 6.35 0 0 0-6.06 4.66zM20.16 10.2a5.82 5.82 0 0 1 2.75-1.77 6.1 6.1 0 0 1 2.83-.06l-3.11 1.91h-1.12a9.43 9.43 0 0 0-1.46.11zm5.33 3.08l-.54.31.34 2a2.48 2.48 0 0 0-1.89 2.32 7.48 7.48 0 0 0 .19 1.38 15.37 15.37 0 0 1 .3 2c0 2.05-2.84 3.41-5.23 3.33h-.06a6.32 6.32 0 0 1-2-.42.32.32 0 0 1-.11-.27v-.06a.26.26 0 0 1 .23-.21h1.51c1.84-.07 3.71-.83 3.92-2.74a2.43 2.43 0 0 0-2.15-2.5 4.86 4.86 0 0 0-2.36 1.07 3.39 3.39 0 0 1-1.37.68c-.23 0-.43-.16-.43-.28a.15.15 0 0 1 0-.06l1-1.29L16 18c-.17-.12-.45-.34-.49-.5a.37.37 0 0 1 .14-.25 18 18 0 0 0 1.14-1.5c.24-.34.39-.53.79-.53a.74.74 0 0 1 .75.72c0 .27.29.48.65.48s.52-.26.75-.47c0 0 .86-.79.4-1.16s-2.6.45-2-1.46l.07-.33c.22-.3 1.22-1 3.28-1a8.66 8.66 0 0 1 1.22.09h.31l4.37-2.69a1 1 0 0 1 0 .17 3.79 3.79 0 0 1-1.89 3.71z"/><path class="cls-2" d="M44.04 13.74H48v-1.75h-3.14l-.82 1.75zM1.74 35.75l8.27-2.14 8.27 2.14V48h1.77V34.4l-10.02-2.61-3.58.93-1.88.5v-.01L0 34.4V48h1.74V35.75z"/><path class="cls-2" d="M4.57 33.22l1.88-.5-1.88.49v.01zM3.58 43.47l5.53-1.43v-1.81l-5.53 1.43v1.81zM10.94 42.03l5.53 1.44v-1.81l-5.53-1.43v1.8zM10.94 38.4l5.53 1.43v-1.81l-5.53-1.43v1.81zM10.94 45.68l5.53 1.43V45.3l-5.53-1.43v1.81zM3.58 47.11l5.53-1.44v-1.81L3.58 45.3v1.81zM3.58 39.83l5.53-1.43v-1.81l-5.53 1.43v1.81z"/></g></svg>