<svg xmlns="http://www.w3.org/2000/svg" viewBox="0 0 48 48"><defs><style>.cls-1{fill:#c12129;}.cls-2{fill:#fff;}</style></defs><title>generali</title><g id="Layer_2" data-name="Layer 2"><rect class="cls-1" width="48" height="48"/><path class="cls-1" d="M48,37.67v-.06h0Z"/><path class="cls-2" d="M41.84,37.42a23,23,0,0,1-8.7,1.46l-.7,0-.18.67c-.15.53-1.21,4.73-.18,7.43a2.44,2.44,0,0,0-.79,1h2.45l.74-.34-.55-.86c-.93-1.41-.52-4.49-.17-6.17h.08a25.19,25.19,0,0,0,8.49-1.55c.64-.22,1.31-.43,2-.64h0s.74-.23,1.73-.47L48,41.1V37.67l0-.06h0V35.86a27,27,0,0,0-4.12.91Z"/><polygon class="cls-2" points="42.07 18.08 48 18.08 48 16.32 42.89 16.32 42.07 18.08"/><path class="cls-2" d="M44.74,46.7A4,4,0,0,0,41.18,48H48V46.83l-.38.4Z"/><path class="cls-2" d="M46.2,20.56H40.65l-.81,1.76h5.82a1.91,1.91,0,0,1,.19,1,2.08,2.08,0,0,1-2.11,2.05,3.4,3.4,0,0,1-1.34-.33l-.76-.33L40.28,26l.75.32a6.46,6.46,0,0,0,2.72.78,3.82,3.82,0,0,0,2.72-1.16L48,26V24.32l-.59-.05a3.39,3.39,0,0,0,.1-.84,4.23,4.23,0,0,0-.11-1.05H48v-2A7.73,7.73,0,0,1,46.2,20.56Z"/><path class="cls-2" d="M33.39,12.66l0,.09A9,9,0,0,0,29.62,8a9.46,9.46,0,0,0-7.18-1.26,8.14,8.14,0,0,0-2,.9,7.4,7.4,0,0,0-1.68,1.48,14.47,14.47,0,0,0-1.45,2.34,2.61,2.61,0,0,0-.56.61l-.51.95,0,.06a12,12,0,0,1-1.93,3,2,2,0,0,0-.52,1.72,2.25,2.25,0,0,0,.58,1.1l0,0a1.93,1.93,0,0,0-.26,1,2.05,2.05,0,0,0,2.18,2A4.25,4.25,0,0,0,18.6,21,6,6,0,0,1,20,20.22a.66.66,0,0,1,.64.64c0,.91-1.19,1.41-2,1.47l-1.73.19c-1.24.11-1.83.77-1.83,1.36A1.45,1.45,0,0,0,15.5,25l.13.13.43.39-1.82,3a6.84,6.84,0,0,0-4.2-2,3,3,0,0,0-2.19.76,2.64,2.64,0,0,0-.43.52h0a3.85,3.85,0,0,0-3.19,1.65,3.85,3.85,0,0,0,.36,3.79l1.88-.49a2.72,2.72,0,0,1-.76-2.42v0a2.08,2.08,0,0,1,2.12-.81l.75.12.24-.72a1.05,1.05,0,0,1,.26-.44A1.27,1.27,0,0,1,10,28.2a5.44,5.44,0,0,1,3.45,1.93,8,8,0,0,1,1.05,1.39c.07.1.14.22.2.32l.17.27a8.39,8.39,0,0,1,.54.92l1.09-1.53s0-.06,0-.12a5.7,5.7,0,0,0-.4-.65L16,30.6h0l-.13-.2c-.11-.18-.29-.46-.36-.61l2.28-3.66a6.67,6.67,0,0,0,1.29.14h.06c3.23,0,6.56-1.86,6.56-5v-.07a14.3,14.3,0,0,0-.32-2.31,6.32,6.32,0,0,1-.16-1c0-.33.48-.71,1.17-.71h1l-.47-2.7a5.58,5.58,0,0,0,2.32-4.52,8,8,0,0,1,2.9,5.56A9,9,0,0,1,31.88,18l-.12.4h0a33.78,33.78,0,0,1-1.22,3.93l-.27.7.66.37c1.17.67,1.9,1.16,1.9,2.71a3.78,3.78,0,0,1-3.15,3.44L27.58,30l1.8,1.19a2.05,2.05,0,0,1,.9,1.68,2.08,2.08,0,0,1-2.13,2h-.67l-.2.62c-.65,2.13-1.38,3.18-3.66,3.4a13.1,13.1,0,0,0,.17-2.15c0-.21,0-.79,0-1l-.11-2-1.39,1.43a4.4,4.4,0,0,1-2.19,1v1.7a7.6,7.6,0,0,0,2-.57,14,14,0,0,1-.23,1.75c0,.15-.06.31-.09.48l-.17,1h1a7.65,7.65,0,0,0,3.6-.72v5.93a.27.27,0,0,1-.27.27h-.26a4.19,4.19,0,0,0-3.54,1.59l0,0A2.23,2.23,0,0,0,22,48h2.63a3.94,3.94,0,0,1,1.09-.16h.26a2,2,0,0,0,2-2V38.29a8.93,8.93,0,0,0,.85-1.81A3.8,3.8,0,0,0,32,32.75a3.75,3.75,0,0,0-.59-2,5.27,5.27,0,0,0,3.15-4.67,4.12,4.12,0,0,0-2.15-3.85,34.76,34.76,0,0,0,1.11-3.82L35,13.11a4.63,4.63,0,0,1,4.38-3.39H48V8H39.45A6.35,6.35,0,0,0,33.39,12.66ZM20.16,10.2l0,0a5.82,5.82,0,0,1,2.75-1.77,6.1,6.1,0,0,1,2.83-.06l-3.11,1.91c-.38,0-.76,0-1.12,0a9.43,9.43,0,0,0-1.46.11Zm5.33,3.08-.54.31.34,2a2.48,2.48,0,0,0-1.89,2.32,7.48,7.48,0,0,0,.19,1.38,15.37,15.37,0,0,1,.3,2c0,2.05-2.84,3.41-5.23,3.33H18.6a6.32,6.32,0,0,1-2-.42.32.32,0,0,1-.11-.27l0-.06a.26.26,0,0,1,.23-.21l1.51,0c1.84-.07,3.71-.83,3.92-2.74A2.43,2.43,0,0,0,20,18.42a4.86,4.86,0,0,0-2.36,1.07,3.39,3.39,0,0,1-1.37.68c-.23,0-.43-.16-.43-.28a.15.15,0,0,1,0-.06l1-1.29L16,18c-.17-.12-.45-.34-.49-.5a.37.37,0,0,1,.14-.25,18,18,0,0,0,1.14-1.5c.24-.34.39-.53.79-.53a.74.74,0,0,1,.75.72c0,.27.29.48.65.48s.52-.26.75-.47c0,0,.86-.79.4-1.16s-2.6.45-2-1.46L18.2,13c.22-.3,1.22-1,3.28-1a8.66,8.66,0,0,1,1.22.09l.31,0,4.37-2.69a1,1,0,0,1,0,.17v0A3.79,3.79,0,0,1,25.49,13.28Z"/><polygon class="cls-2" points="44.04 13.74 48 13.74 48 11.99 44.86 11.99 44.04 13.74"/><polygon class="cls-2" points="1.74 35.75 10.01 33.61 18.28 35.75 18.28 48 20.05 48 20.05 34.4 10.03 31.79 6.45 32.72 6.45 32.72 4.57 33.22 4.57 33.21 0 34.4 0 48 1.74 48 1.74 35.75"/><polygon class="cls-2" points="4.57 33.22 6.45 32.72 6.45 32.72 4.57 33.21 4.57 33.22"/><polygon class="cls-2" points="3.58 43.47 9.11 42.04 9.11 40.23 3.58 41.66 3.58 43.47"/><polygon class="cls-2" points="10.94 42.03 16.47 43.47 16.47 41.66 10.94 40.23 10.94 42.03"/><polygon class="cls-2" points="10.94 38.4 16.47 39.83 16.47 38.02 10.94 36.59 10.94 38.4"/><polygon class="cls-2" points="10.94 45.68 16.47 47.11 16.47 45.3 10.94 43.87 10.94 45.68"/><polygon class="cls-2" points="3.58 47.11 9.11 45.67 9.11 43.86 3.58 45.3 3.58 47.11"/><polygon class="cls-2" points="3.58 39.83 9.11 38.4 9.11 36.59 3.58 38.02 3.58 39.83"/></g></svg>