<svg xmlns="http://www.w3.org/2000/svg" viewBox="0 0 32 32"><g fill="none" fill-rule="evenodd"><rect width="32" height="32" fill="#C12129" fill-rule="nonzero"/><path fill="#FFFFFF" fill-rule="nonzero" d="M3.35 21.86a2.66 2.66 0 0 1-.13-2.38 2.51 2.51 0 0 1 2.1-1.11c.08-.13.17-.25.28-.35.4-.36.91-.55 1.44-.52 1.05.11 2.03.59 2.76 1.35l1.2-2.02-.28-.26-.09-.1a1 1 0 0 1-.27-.75c0-.4.38-.84 1.2-.91l1.14-.13c.53-.04 1.31-.38 1.31-1a.44.44 0 0 0-.42-.43 4 4 0 0 0-.92.53c-.44.35-.96.56-1.52.6-.36.03-.72-.1-1-.35a1.4 1.4 0 0 1-.43-1c0-.23.05-.46.17-.67a1.37 1.37 0 0 1-.04-1.9c.52-.6.95-1.29 1.27-2.03V8.4l.33-.64c.1-.15.23-.3.37-.4.27-.56.59-1.1.96-1.59a4.9 4.9 0 0 1 2.42-1.6 6.09 6.09 0 0 1 4.72.85 6.05 6.05 0 0 1 2.47 3.2v-.06a4.2 4.2 0 0 1 3.99-3.14H32v1.16h-5.67a3.06 3.06 0 0 0-2.88 2.29l-.97 3.57c-.2.87-.44 1.74-.73 2.58a2.8 2.8 0 0 1 1.41 2.6 3.56 3.56 0 0 1-2.07 3.15 2.55 2.55 0 0 1-1.7 3.87 6.1 6.1 0 0 1-.55 1.22v5.1c0 .74-.6 1.34-1.32 1.34h-.17c-.24 0-.48.04-.72.11h-1.72c.02-.1.05-.18.09-.27a2.73 2.73 0 0 1 2.33-1.07h.17c.04 0 .09-.02.12-.06a.18.18 0 0 0 .05-.13v-4c-.74.36-1.55.53-2.36.49h-.66l.11-.68c.02-.11.06-.22.06-.32.07-.39.13-.78.15-1.18a4.9 4.9 0 0 1-1.31.38v-1.14a2.86 2.86 0 0 0 1.44-.68l.91-.96.07 1.35v.67a10 10 0 0 1-.1 1.45c1.49-.15 1.97-.85 2.4-2.3l.13-.41h.44c.75.02 1.37-.58 1.4-1.35 0-.45-.23-.88-.6-1.13l-1.18-.8 1.39-.31a2.53 2.53 0 0 0 2.07-2.32c0-1.05-.48-1.38-1.25-1.83l-.44-.25.18-.47c.32-.87.59-1.76.8-2.66l.08-.26c.13-.55.2-1.12.17-1.68a5.44 5.44 0 0 0-1.9-3.75 3.8 3.8 0 0 1-1.53 3.05l.31 1.82h-.66c-.45 0-.77.26-.77.48.02.23.06.45.1.68.12.5.19 1.03.22 1.55v.05c0 2.12-2.2 3.38-4.31 3.38h-.04c-.29 0-.57-.04-.85-.1l-1.5 2.47c.04.1.16.3.24.41l.08.14.07.09c.1.14.18.28.26.43v.09l-.72 1.03a5.7 5.7 0 0 0-.35-.62l-.11-.19-.14-.21c-.2-.34-.42-.65-.69-.94a3.55 3.55 0 0 0-2.26-1.3.82.82 0 0 0-.6.19.71.71 0 0 0-.18.3l-.16.48-.5-.08c-.52-.12-1.07.1-1.38.55-.1.51.03 1.04.34 1.45L6.5 21l6.5 1.77V32h-1.15v-8.31L6.5 22.24l-5.36 1.45V32H0v-9.23l2.96-.8.39-.1zM32 25.06V25v.06zM28 12l.55-1H32v1h-4zm1.61 19.03l2.11.4.28-.3V32h-5a2.9 2.9 0 0 1 2.61-.97zm1.29-17.9c.37.01.74-.03 1.1-.13v1.49h-.37a3.8 3.8 0 0 1 0 1.4l.37.04v1.25l-.94-.04c-.44.54-1.04.86-1.66.86a3.45 3.45 0 0 1-1.67-.58l-.46-.24.83-.96.47.25c.26.15.54.23.82.24.34 0 .66-.15.9-.43.25-.3.39-.68.4-1.1.01-.25-.03-.5-.12-.74H27l.5-1.3h3.4zM13.7 6.5l-.08.13c.32-.05.64-.08.96-.07h.74l2.04-1.3a3.91 3.91 0 0 0-1.86.05c-.7.2-1.32.62-1.8 1.2zm3.5 2.08a2.58 2.58 0 0 0 1.24-2.5.7.7 0 0 0 0-.12l-2.87 1.82h-.2a5.55 5.55 0 0 0-.8-.06c-1.36 0-2.02.47-2.16.67l-.05.22c-.4 1.3 1.01.74 1.32.99.3.25-.27.78-.27.78-.15.14-.25.32-.49.32s-.43-.14-.43-.33a.5.5 0 0 0-.49-.48c-.26 0-.36.13-.52.36-.23.35-.48.69-.75 1a.25.25 0 0 0-.1.18c.04.1.22.25.33.34l.55.36-.65.87a.1.1 0 0 0 0 .04c0 .08.13.19.28.19.33-.08.64-.24.9-.46.44-.38.98-.63 1.55-.72.83.1 1.44.83 1.41 1.69-.13 1.28-1.36 1.8-2.57 1.84h-1a.17.17 0 0 0-.15.15v.04c0 .07.02.13.08.18.42.17.86.26 1.31.28h.04c1.57.06 3.44-.86 3.44-2.24-.04-.46-.1-.9-.2-1.35a4.94 4.94 0 0 1-.12-.94c.02-.74.53-1.38 1.24-1.56l-.22-1.35.35-.21zM29 9l.62-1H32v1h-3zM2 29v-1.12L6 27v1.12L2 29zm5-.89V27l4 .88V29l-4-.89zm0-3V24l4 .88V26l-4-.88zm0 5V29l4 .88V31l-4-.88zM2 31v-1.11L6 29v1.11L2 31zm0-5v-1.12L6 24v1.12L2 26z"/></g></svg>